<mxfile host="app.diagrams.net" modified="2022-08-25T11:31:00.118Z" agent="5.0 (Windows NT 10.0; Win64; x64) AppleWebKit/537.36 (KHTML, like Gecko) Chrome/104.0.5112.102 Safari/537.36 Edg/104.0.1293.63" etag="GmYPHH5r6QMPZwWFiqrZ" version="20.2.7" type="github">
  <diagram id="-HUmMel23xpcoHxmp4uh" name="Página-4">
    <mxGraphModel dx="1038" dy="579" grid="0" gridSize="10" guides="1" tooltips="1" connect="1" arrows="1" fold="1" page="1" pageScale="1" pageWidth="1169" pageHeight="827" background="#FCE7CD" math="0" shadow="0">
      <root>
        <mxCell id="0" />
        <mxCell id="1" parent="0" />
        <mxCell id="0xzV7fThEJctc0XIujdz-1" style="edgeStyle=elbowEdgeStyle;rounded=0;jumpStyle=gap;orthogonalLoop=1;jettySize=auto;elbow=vertical;html=1;entryX=0.5;entryY=0;entryDx=0;entryDy=0;labelBackgroundColor=#FCE7CD;strokeColor=#23445D;" parent="1" source="QnffKCTw5WCzr_MRpf1b-3" target="QnffKCTw5WCzr_MRpf1b-6" edge="1">
          <mxGeometry relative="1" as="geometry" />
        </mxCell>
        <mxCell id="0xzV7fThEJctc0XIujdz-3" style="edgeStyle=elbowEdgeStyle;rounded=0;jumpStyle=gap;orthogonalLoop=1;jettySize=auto;elbow=vertical;html=1;exitX=0.5;exitY=1;exitDx=0;exitDy=0;labelBackgroundColor=#FCE7CD;strokeColor=#23445D;" parent="1" source="QnffKCTw5WCzr_MRpf1b-3" target="QnffKCTw5WCzr_MRpf1b-7" edge="1">
          <mxGeometry relative="1" as="geometry" />
        </mxCell>
        <mxCell id="0xzV7fThEJctc0XIujdz-4" style="edgeStyle=none;rounded=0;jumpStyle=gap;orthogonalLoop=1;jettySize=auto;html=1;exitX=0.5;exitY=1;exitDx=0;exitDy=0;entryX=0.5;entryY=0;entryDx=0;entryDy=0;elbow=vertical;labelBackgroundColor=#FCE7CD;strokeColor=#23445D;" parent="1" source="QnffKCTw5WCzr_MRpf1b-3" target="QnffKCTw5WCzr_MRpf1b-4" edge="1">
          <mxGeometry relative="1" as="geometry" />
        </mxCell>
        <mxCell id="6VNjY1QE3KCqlpiP6bR6-2" value="" style="edgeStyle=orthogonalEdgeStyle;rounded=0;orthogonalLoop=1;jettySize=auto;html=1;" parent="1" source="QnffKCTw5WCzr_MRpf1b-3" target="6VNjY1QE3KCqlpiP6bR6-1" edge="1">
          <mxGeometry relative="1" as="geometry" />
        </mxCell>
        <mxCell id="QnffKCTw5WCzr_MRpf1b-3" value="&lt;font color=&quot;#ffd608&quot;&gt;HOME PAGE FRANGO SERRANO&lt;/font&gt;" style="rounded=0;whiteSpace=wrap;html=1;strokeColor=#B20000;strokeWidth=1;fillColor=#e51400;fontColor=#ffffff;" parent="1" vertex="1">
          <mxGeometry x="408" y="49" width="120" height="60" as="geometry" />
        </mxCell>
        <mxCell id="0xzV7fThEJctc0XIujdz-20" style="edgeStyle=elbowEdgeStyle;rounded=0;jumpStyle=gap;orthogonalLoop=1;jettySize=auto;elbow=vertical;html=1;exitX=0.5;exitY=1;exitDx=0;exitDy=0;entryX=0.5;entryY=0;entryDx=0;entryDy=0;labelBackgroundColor=#FCE7CD;strokeColor=#23445D;" parent="1" source="QnffKCTw5WCzr_MRpf1b-4" target="0xzV7fThEJctc0XIujdz-12" edge="1">
          <mxGeometry relative="1" as="geometry" />
        </mxCell>
        <mxCell id="0xzV7fThEJctc0XIujdz-21" style="edgeStyle=elbowEdgeStyle;rounded=0;jumpStyle=gap;orthogonalLoop=1;jettySize=auto;elbow=vertical;html=1;exitX=0.5;exitY=1;exitDx=0;exitDy=0;labelBackgroundColor=#FCE7CD;strokeColor=#23445D;" parent="1" source="QnffKCTw5WCzr_MRpf1b-4" target="0xzV7fThEJctc0XIujdz-14" edge="1">
          <mxGeometry relative="1" as="geometry" />
        </mxCell>
        <mxCell id="0xzV7fThEJctc0XIujdz-23" style="edgeStyle=none;rounded=0;jumpStyle=gap;orthogonalLoop=1;jettySize=auto;html=1;exitX=0.5;exitY=1;exitDx=0;exitDy=0;entryX=0.441;entryY=-0.01;entryDx=0;entryDy=0;entryPerimeter=0;elbow=vertical;labelBackgroundColor=#FCE7CD;strokeColor=#23445D;" parent="1" source="QnffKCTw5WCzr_MRpf1b-4" target="0xzV7fThEJctc0XIujdz-13" edge="1">
          <mxGeometry relative="1" as="geometry" />
        </mxCell>
        <mxCell id="QnffKCTw5WCzr_MRpf1b-4" value="&lt;font color=&quot;#ffd608&quot;&gt;PRODUTOS&lt;/font&gt;" style="rounded=0;whiteSpace=wrap;html=1;strokeColor=#B20000;strokeWidth=1;fillColor=#e51400;fontColor=#ffffff;" parent="1" vertex="1">
          <mxGeometry x="408" y="189" width="120" height="60" as="geometry" />
        </mxCell>
        <mxCell id="QnffKCTw5WCzr_MRpf1b-6" value="&lt;font color=&quot;#ffd608&quot;&gt;SERVIÇOS&lt;/font&gt;" style="rounded=0;whiteSpace=wrap;html=1;strokeColor=#B20000;strokeWidth=1;fillColor=#e51400;fontColor=#ffffff;" parent="1" vertex="1">
          <mxGeometry x="79" y="189" width="120" height="60" as="geometry" />
        </mxCell>
        <mxCell id="QnffKCTw5WCzr_MRpf1b-7" value="&lt;font color=&quot;#ffd608&quot;&gt;SOBRE NÓS&lt;/font&gt;" style="rounded=0;whiteSpace=wrap;html=1;strokeColor=#B20000;strokeWidth=1;fillColor=#e51400;fontColor=#ffffff;" parent="1" vertex="1">
          <mxGeometry x="690" y="189" width="120" height="60" as="geometry" />
        </mxCell>
        <mxCell id="0xzV7fThEJctc0XIujdz-7" value="&lt;font color=&quot;#ffd608&quot;&gt;BAIRROS DISPONÍVEIS PARA O SERVIÇO DE ENTREGA&lt;/font&gt;" style="rounded=1;whiteSpace=wrap;html=1;strokeColor=#B20000;strokeWidth=1;fillColor=#e51400;fontColor=#ffffff;" parent="1" vertex="1">
          <mxGeometry x="79" y="303" width="120" height="60" as="geometry" />
        </mxCell>
        <mxCell id="0xzV7fThEJctc0XIujdz-9" value="" style="endArrow=none;html=1;rounded=0;elbow=vertical;jumpStyle=gap;exitX=0.5;exitY=0;exitDx=0;exitDy=0;entryX=0.5;entryY=1;entryDx=0;entryDy=0;labelBackgroundColor=#FCE7CD;strokeColor=#23445D;" parent="1" source="0xzV7fThEJctc0XIujdz-7" target="QnffKCTw5WCzr_MRpf1b-6" edge="1">
          <mxGeometry width="50" height="50" relative="1" as="geometry">
            <mxPoint x="215" y="299" as="sourcePoint" />
            <mxPoint x="261" y="247" as="targetPoint" />
          </mxGeometry>
        </mxCell>
        <mxCell id="n3jZjwb1sbhtCN2aumiD-15" style="edgeStyle=elbowEdgeStyle;rounded=0;jumpStyle=gap;orthogonalLoop=1;jettySize=auto;elbow=vertical;html=1;exitX=0.5;exitY=1;exitDx=0;exitDy=0;fontFamily=Helvetica;fontSize=12;labelBackgroundColor=#FCE7CD;strokeColor=#23445D;" parent="1" source="0xzV7fThEJctc0XIujdz-12" target="n3jZjwb1sbhtCN2aumiD-13" edge="1">
          <mxGeometry relative="1" as="geometry" />
        </mxCell>
        <mxCell id="0xzV7fThEJctc0XIujdz-12" value="&lt;font color=&quot;#ffd608&quot;&gt;AVIÁRIOS&lt;/font&gt;" style="rounded=0;whiteSpace=wrap;html=1;strokeColor=#B20000;strokeWidth=1;fillColor=#e51400;fontColor=#ffffff;" parent="1" vertex="1">
          <mxGeometry x="343" y="307.5" width="75" height="51" as="geometry" />
        </mxCell>
        <mxCell id="n3jZjwb1sbhtCN2aumiD-17" style="edgeStyle=elbowEdgeStyle;rounded=0;jumpStyle=gap;orthogonalLoop=1;jettySize=auto;elbow=vertical;html=1;exitX=0.5;exitY=1;exitDx=0;exitDy=0;entryX=0.5;entryY=0;entryDx=0;entryDy=0;fontFamily=Helvetica;fontSize=12;labelBackgroundColor=#FCE7CD;strokeColor=#23445D;" parent="1" source="0xzV7fThEJctc0XIujdz-13" target="n3jZjwb1sbhtCN2aumiD-13" edge="1">
          <mxGeometry relative="1" as="geometry" />
        </mxCell>
        <mxCell id="0xzV7fThEJctc0XIujdz-13" value="&lt;font color=&quot;#ffd608&quot;&gt;BOVINOS&lt;/font&gt;" style="rounded=0;whiteSpace=wrap;html=1;strokeColor=#B20000;strokeWidth=1;fillColor=#e51400;fontColor=#ffffff;" parent="1" vertex="1">
          <mxGeometry x="432.5" y="307.5" width="75" height="51" as="geometry" />
        </mxCell>
        <mxCell id="n3jZjwb1sbhtCN2aumiD-16" style="edgeStyle=elbowEdgeStyle;rounded=0;jumpStyle=gap;orthogonalLoop=1;jettySize=auto;elbow=vertical;html=1;exitX=0.5;exitY=1;exitDx=0;exitDy=0;fontFamily=Helvetica;fontSize=12;labelBackgroundColor=#FCE7CD;strokeColor=#23445D;" parent="1" source="0xzV7fThEJctc0XIujdz-14" target="n3jZjwb1sbhtCN2aumiD-13" edge="1">
          <mxGeometry relative="1" as="geometry" />
        </mxCell>
        <mxCell id="0xzV7fThEJctc0XIujdz-14" value="&lt;font color=&quot;#ffd608&quot;&gt;SUÍNOS&lt;/font&gt;" style="rounded=0;whiteSpace=wrap;html=1;strokeColor=#B20000;strokeWidth=1;fillColor=#e51400;fontColor=#ffffff;" parent="1" vertex="1">
          <mxGeometry x="524" y="307.5" width="75" height="51" as="geometry" />
        </mxCell>
        <mxCell id="0xzV7fThEJctc0XIujdz-15" style="edgeStyle=none;rounded=0;jumpStyle=gap;orthogonalLoop=1;jettySize=auto;html=1;exitX=1;exitY=1;exitDx=0;exitDy=0;elbow=vertical;labelBackgroundColor=#FCE7CD;strokeColor=#23445D;" parent="1" source="0xzV7fThEJctc0XIujdz-12" target="0xzV7fThEJctc0XIujdz-12" edge="1">
          <mxGeometry relative="1" as="geometry" />
        </mxCell>
        <mxCell id="n3jZjwb1sbhtCN2aumiD-5" value="&lt;font color=&quot;#ffd608&quot;&gt;HISTÓRIA DA EMPRESA&lt;br&gt;LOCALIZAÇÃO&amp;nbsp;&lt;br&gt;HÓRARIO DE FUNCIONAMENTO&lt;br&gt;FORNECEDORES&lt;br&gt;&lt;/font&gt;" style="rounded=1;whiteSpace=wrap;html=1;strokeColor=#B20000;strokeWidth=1;fillColor=#e51400;fontColor=#ffffff;" parent="1" vertex="1">
          <mxGeometry x="679" y="287" width="148" height="98" as="geometry" />
        </mxCell>
        <mxCell id="n3jZjwb1sbhtCN2aumiD-6" value="" style="endArrow=none;html=1;rounded=0;elbow=vertical;jumpStyle=gap;exitX=0.5;exitY=0;exitDx=0;exitDy=0;labelBackgroundColor=#FCE7CD;strokeColor=#23445D;" parent="1" source="n3jZjwb1sbhtCN2aumiD-5" edge="1">
          <mxGeometry width="50" height="50" relative="1" as="geometry">
            <mxPoint x="753" y="301" as="sourcePoint" />
            <mxPoint x="753" y="250" as="targetPoint" />
          </mxGeometry>
        </mxCell>
        <mxCell id="n3jZjwb1sbhtCN2aumiD-19" value="" style="edgeStyle=elbowEdgeStyle;rounded=0;jumpStyle=gap;orthogonalLoop=1;jettySize=auto;elbow=vertical;html=1;fontFamily=Helvetica;fontSize=12;labelBackgroundColor=#FCE7CD;strokeColor=#23445D;" parent="1" source="n3jZjwb1sbhtCN2aumiD-13" target="n3jZjwb1sbhtCN2aumiD-18" edge="1">
          <mxGeometry relative="1" as="geometry" />
        </mxCell>
        <mxCell id="n3jZjwb1sbhtCN2aumiD-13" value="&lt;font color=&quot;#ffd608&quot;&gt;LINK PARA REDIRECIONAMENTO&amp;nbsp;&lt;/font&gt;" style="rounded=1;whiteSpace=wrap;html=1;fontFamily=Helvetica;fontSize=12;fontColor=#ffffff;strokeColor=#B20000;strokeWidth=1;fillColor=#e51400;" parent="1" vertex="1">
          <mxGeometry x="392" y="476" width="156" height="34" as="geometry" />
        </mxCell>
        <mxCell id="n3jZjwb1sbhtCN2aumiD-18" value="&lt;font color=&quot;#ffd608&quot;&gt;REDES SOCIAS/ TELEFONE&lt;/font&gt;" style="ellipse;whiteSpace=wrap;html=1;strokeColor=#B20000;rounded=1;strokeWidth=1;fillColor=#e51400;fontColor=#ffffff;" parent="1" vertex="1">
          <mxGeometry x="410" y="577" width="120" height="42" as="geometry" />
        </mxCell>
        <mxCell id="6VNjY1QE3KCqlpiP6bR6-1" value="CADASTRAR PRODUTOS, PRODUTOS JÁ CADASTRADO" style="rhombus;whiteSpace=wrap;html=1;fillColor=#e51400;strokeColor=#B20000;fontColor=#ffffff;rounded=0;strokeWidth=1;" parent="1" vertex="1">
          <mxGeometry x="710" y="16.5" width="216" height="125" as="geometry" />
        </mxCell>
      </root>
    </mxGraphModel>
  </diagram>
</mxfile>
